<svg xmlns="http://www.w3.org/2000/svg" width="24" height="24" fill="none"><path fill="#FF9100" d="M20.997 9.152c-.32-2.657-2.757-4.654-5.566-5.579 1.28 1.385 2.194 3.537 2.194 6.177h.988l-4.1 4.553c-.087-.021-.168-.053-.263-.053h-1.688v-4.5H16.5C16.5 5.7 14.078 3 12 3S7.5 5.7 7.5 9.75h3.938v4.5H9.75c-.095 0-.176.032-.264.053L5.387 9.75h.988c0-2.64.914-4.792 2.194-6.177-2.81.928-5.246 2.925-5.565 5.58-.04.32.239.597.562.597h.306l4.806 5.34c-.025.092-.057.183-.057.285v4.5c0 .622.503 1.125 1.125 1.125h4.5c.623 0 1.125-.503 1.125-1.125v-4.5c0-.102-.031-.19-.056-.285l4.81-5.34h.305c.327 0 .605-.274.567-.598Z"/></svg>