<svg xmlns="http://www.w3.org/2000/svg" width="24" height="24" fill="none"><path fill="#FF9100" d="M15.278 7.125 7.826 3.247c-.3-.153-.647-.18-.961-.064l-1.537.561a.6.6 0 0 0-.265.935l3.795 4.783-3.747 1.36-2.247-1.368a.909.909 0 0 0-.774-.078l-.61.224a.596.596 0 0 0-.31.864l2.004 3.432a2.39 2.39 0 0 0 2.883 1.04l.483-.176 14.896-5.422a2.095 2.095 0 0 0-1.432-3.937l-4.726 1.724ZM2.572 18.495c-.662 0-1.196.535-1.196 1.197s.534 1.197 1.196 1.197h19.145c.662 0 1.196-.535 1.196-1.197s-.534-1.197-1.196-1.197H2.572Z"/></svg>